<?xml version="1.0"?>
<svg xmlns="http://www.w3.org/2000/svg" xmlns:xlink="http://www.w3.org/1999/xlink" version="1.1" id="Capa_1" x="0px" y="0px" viewBox="0 0 31.059 31.059" style="enable-background:new 0 0 31.059 31.059;" xml:space="preserve" width="512px" height="512px" class=""><g><g>
	<g>
		<path d="M23.128,31.059H7.931C3.558,31.059,0,27.5,0,23.127V7.93C0,3.557,3.558,0,7.931,0h15.197    c4.373,0,7.931,3.557,7.931,7.93v15.197C31.059,27.5,27.501,31.059,23.128,31.059z M7.931,1.774c-3.395,0-6.156,2.761-6.156,6.155    v15.197c0,3.395,2.762,6.156,6.156,6.156h15.197c3.395,0,6.155-2.762,6.155-6.156V7.93c0-3.395-2.761-6.155-6.155-6.155H7.931z" data-original="#010002" class="active-path" data-old_color="#ff32f6" fill="#ff32f6"/>
	</g>
	<g>
		<path d="M30.171,11.654H19.232c-0.49,0-0.888-0.398-0.888-0.888c0-0.49,0.397-0.888,0.888-0.888h10.938    c0.49,0,0.888,0.397,0.888,0.888C31.059,11.256,30.661,11.654,30.171,11.654z" data-original="#010002" class="active-path" data-old_color="#ff32f6" fill="#ff32f6"/>
	</g>
	<g>
		<path d="M11.597,11.654H0.887C0.397,11.654,0,11.256,0,10.767c0-0.49,0.397-0.888,0.887-0.888h10.71    c0.49,0,0.888,0.397,0.888,0.888C12.484,11.256,12.087,11.654,11.597,11.654z" data-original="#010002" class="active-path" data-old_color="#ff32f6" fill="#ff32f6"/>
	</g>
	<g>
		<path d="M15.529,22.45c-3.816,0-6.922-3.104-6.922-6.921c0-3.817,3.105-6.922,6.922-6.922    c3.816,0,6.921,3.104,6.921,6.922C22.45,19.346,19.346,22.45,15.529,22.45z M15.529,10.382c-2.838,0-5.148,2.31-5.148,5.148    s2.31,5.146,5.148,5.146c2.838,0,5.146-2.308,5.146-5.146S18.367,10.382,15.529,10.382z" data-original="#010002" class="active-path" data-old_color="#ff32f6" fill="#ff32f6"/>
	</g>
	<g>
		<path d="M25.557,9.361h-3.993c-0.49,0-0.888-0.397-0.888-0.887V4.48c0-0.49,0.398-0.887,0.888-0.887h3.993    c0.49,0,0.887,0.397,0.887,0.887v3.994C26.443,8.965,26.047,9.361,25.557,9.361z M22.45,7.586h2.219V5.368H22.45V7.586z" data-original="#010002" class="active-path" data-old_color="#ff32f6" fill="#ff32f6"/>
	</g>
	<g>
		
			<path style="stroke-width: 1.7748; stroke-linecap: round; stroke-linejoin: round; stroke-miterlimit: 10;" d="    M19.232,10.767" data-original="#010002" class="active-path" data-old_color="stroke: rgb(255, 255, 255) stroke-width: 1.7748; stroke-linecap: round; stroke-linejoin: round; stroke-miterlimit: 10;#FF32F6" stroke="#ff32f6" fill="#ff32f6"/>
	</g>
</g></g> </svg>
